<svg xmlns="http://www.w3.org/2000/svg" viewBox="0 0 126.17 40.08"><defs><style>.cls-1,.cls-2{fill:#f2f2f2;}.cls-2{fill-rule:evenodd;}</style></defs><title>microvoz-admin-logo</title><g id="Capa_2" data-name="Capa 2"><g id="Layer_1" data-name="Layer 1"><path class="cls-1" d="M29.66,17.84c0,2.92,2.13,3.17,4,3.17a6.47,6.47,0,0,0,.91,0l.42,0,.53-2.84a.75.75,0,0,0-.18,0,2.2,2.2,0,0,1-.46,0c-.8,0-1.27-.29-1.27-1.22a3.78,3.78,0,0,1,.12-.93l2-10.14H29.57L29,8.51h2.34l-1.51,7.77a7.92,7.92,0,0,0-.17,1.56ZM32.39,3.35h3.77L36.81,0H33l-.65,3.35Z"/><path class="cls-1" d="M36.53,14.72c0,3.88,2.62,6.56,7.27,6.56a10.59,10.59,0,0,0,4.69-1.07,7.65,7.65,0,0,0,1.65-1l-1-2.8a8.34,8.34,0,0,1-1.41.95,7.66,7.66,0,0,1-3.55,1c-2.7,0-4-1.64-4-3.82a5.71,5.71,0,0,1,5.49-5.69c1.35,0,2.64.54,2.5,1.55l-.19.86h3.2l.38-1.91c.56-2.92-3.29-3.82-5.58-3.82a9.36,9.36,0,0,0-9.45,9.23v0Z"/><path class="cls-1" d="M52.27,21H56l1-5.64c.71-3.79,3.33-6.24,5.59-6.24.47,0,.79.06.88.06l.74-3.75a4.47,4.47,0,0,1-.89,0C61,5.43,59,7.29,58,9.36H58A11.12,11.12,0,0,0,58.46,7c0-.74-.56-1.19-1.7-1.19H52.85L52.3,8.45H54a.48.48,0,0,1,.53.66L52.27,21Z"/><path class="cls-1" d="M66.7,15.16a5.8,5.8,0,0,1,5.64-5.71,3.52,3.52,0,0,1,3.74,3.68,5.77,5.77,0,0,1-5.63,5.67,3.49,3.49,0,0,1-3.75-3.64Zm-3.63.17c0,4,2.87,6.76,7.07,6.76a9.43,9.43,0,0,0,9.57-9.2c0-3.93-2.84-6.74-7.07-6.74a9.39,9.39,0,0,0-9.57,9.17Z"/><path class="cls-1" d="M83.21,21h4.29l6.93-12.5h1.82l.56-2.66H89.49l-.56,2.66h1.71L86.59,16.1a8.76,8.76,0,0,0-.5,1.14,3,3,0,0,0-.17.54h-.09a2.47,2.47,0,0,0,0-.54,8,8,0,0,0-.09-1.14L84.59,8.51h1.71l.55-2.66H79.77l-.56,2.66H81L83.21,21Z"/><path class="cls-1" d="M110.41,21h13.22l1-5h-3.19L121,18.27h-4c-.35,0-.71,0-1,0a1.76,1.76,0,0,1-.44,0v-.06a8.73,8.73,0,0,0,1.2-1.07l8.93-9,.47-2.45H113.52l-1,5h3.18l.4-2.29h3.53c.38,0,.7,0,1,0a2.09,2.09,0,0,1,.43,0v.06a13.44,13.44,0,0,0-1.2,1.07l-9,9.09L110.41,21Z"/><path class="cls-1" d="M1.69,21H5.42l1.23-6.52c.55-2.79,2.29-5.67,4.84-5.67,1.32,0,1.7.69,1.7,1.64A8.26,8.26,0,0,1,13,11.88L11.29,21H15l1.25-6.72c.53-2.78,2.29-5.47,4.7-5.47,1.38,0,1.76.69,1.76,1.76.19,1.25-1,5.81-1,7.29,0,2.85,2.2,3.14,3.78,3.14a8,8,0,0,0,1.08,0A.62.62,0,0,0,27,21l.53-2.85a.54.54,0,0,0-.17,0,1.93,1.93,0,0,1-.47,0c-.8,0-1.23-.27-1.23-1.23-.21-1.2,1-5.72,1-7.5,0-2.69-1.65-4-4.13-4A6.74,6.74,0,0,0,16.9,8.8h-.06A3.35,3.35,0,0,0,13.2,5.44,7.36,7.36,0,0,0,7.59,8.73H7.53a5.52,5.52,0,0,0,.35-1.68c0-.76-.47-1.25-1.67-1.25H2.27L1.75,8.55H3.42c.41,0,.59.2.53.62L1.69,21Z"/><path class="cls-2" d="M101,21.21a8.09,8.09,0,0,1-1.52-.68A25.14,25.14,0,0,0,105,19a5.65,5.65,0,0,0,2.66-2.14c1.93-2.54,1.69-5.53-.87-7.45a5.07,5.07,0,0,0-3.27-1,5,5,0,0,0-4.36,2,5.25,5.25,0,0,0,1,7.67,7.57,7.57,0,0,0,1.26.75,5.89,5.89,0,0,1-2.1,1.76,8.05,8.05,0,0,1-2.3-2.06A7.94,7.94,0,1,1,108.22,20a8.52,8.52,0,0,1-1.5.89,5.06,5.06,0,0,0,2.37,2.29A32.48,32.48,0,0,1,101,21.21Z"/><path class="cls-1" d="M6.49,37.52H2.32l-.94,2.56H0l3.85-10H5l3.79,10H7.42ZM2.73,36.39H6.08L4.44,31.86h0Z"/><path class="cls-1" d="M10.51,40.08v-10h3.06a4.09,4.09,0,0,1,4.32,4.3v1.36a4.08,4.08,0,0,1-4.32,4.29Zm1.35-8.89V39h1.71a2.74,2.74,0,0,0,2.18-.91,3.4,3.4,0,0,0,.8-2.33V34.41a3.38,3.38,0,0,0-.8-2.32,2.74,2.74,0,0,0-2.18-.91Z"/><path class="cls-1" d="M21.8,30.13,25,38.21h0l3.17-8.09h1.72v10H28.56V36.14l.14-4h0l-3.23,8h-.9l-3.21-8h0l.13,4v3.94H20.08v-10Z"/><path class="cls-1" d="M34.15,40.08H32.8v-10h1.35Z"/><path class="cls-1" d="M44.56,40.08H43.22l-4.79-7.7h0v7.68H37v-10h1.35l4.79,7.68h0V30.13h1.35Z"/></g></g></svg>